<svg width="34" height="33" viewBox="0 0 34 33" fill="none" xmlns="http://www.w3.org/2000/svg">
<path d="M24.412 19.8C24.548 18.711 24.65 17.622 24.65 16.5C24.65 15.378 24.548 14.289 24.412 13.2H30.158C30.43 14.256 30.6 15.3615 30.6 16.5C30.6 17.6385 30.43 18.744 30.158 19.8M21.403 28.974C22.423 27.1425 23.205 25.1625 23.749 23.1H28.764C27.132 25.8225 24.531 27.9345 21.403 28.974ZM20.978 19.8H13.022C12.852 18.711 12.75 17.622 12.75 16.5C12.75 15.378 12.852 14.2725 13.022 13.2H20.978C21.131 14.2725 21.25 15.378 21.25 16.5C21.25 17.622 21.131 18.711 20.978 19.8ZM17 29.634C15.589 27.654 14.45 25.4595 13.753 23.1H20.247C19.55 25.4595 18.411 27.654 17 29.634ZM10.2 9.9H5.236C6.851 7.161 9.469 5.049 12.58 4.026C11.56 5.8575 10.795 7.8375 10.2 9.9ZM5.236 23.1H10.2C10.795 25.1625 11.56 27.1425 12.58 28.974C9.469 27.9345 6.851 25.8225 5.236 23.1ZM3.842 19.8C3.57 18.744 3.4 17.6385 3.4 16.5C3.4 15.3615 3.57 14.256 3.842 13.2H9.588C9.452 14.289 9.35 15.378 9.35 16.5C9.35 17.622 9.452 18.711 9.588 19.8M17 3.3495C18.411 5.3295 19.55 7.5405 20.247 9.9H13.753C14.45 7.5405 15.589 5.3295 17 3.3495ZM28.764 9.9H23.749C23.205 7.8375 22.423 5.8575 21.403 4.026C24.531 5.0655 27.132 7.161 28.764 9.9ZM17 0C7.599 0 0 7.425 0 16.5C0 20.8761 1.79107 25.0729 4.97918 28.1673C6.55778 29.6994 8.43185 30.9148 10.4944 31.744C12.5569 32.5732 14.7675 33 17 33C21.5087 33 25.8327 31.2616 29.0208 28.1673C32.2089 25.0729 34 20.8761 34 16.5C34 14.3332 33.5603 12.1876 32.706 10.1857C31.8516 8.18385 30.5994 6.3649 29.0208 4.83274C27.4422 3.30057 25.5682 2.08519 23.5056 1.25599C21.4431 0.426785 19.2325 0 17 0Z" fill="white" fill-opacity="0.7"/>
</svg>
